<svg width="110" height="110" viewBox="0 0 359 110" fill="none" xmlns="http://www.w3.org/2000/svg">
<path fill-rule="evenodd" clip-rule="evenodd" d="M342.366 0.878048C340.584 1.17058 338.423 1.75733 337.564 2.18251C336.168 2.87286 334.283 7.02519 334.187 9.62536C334.167 10.1658 333.194 12.6895 332.026 15.2336C330.858 17.7777 329.335 22.5676 328.64 25.8783C327.559 31.0424 325.94 34.494 317.247 50.1844C301.585 78.4528 296.682 86.5748 295.311 86.5296C293.616 86.4737 273.433 66.9819 272.897 64.8835C272.579 63.6378 273.475 61.6958 276.216 57.6909C287.04 41.8709 301.655 19.418 301.683 18.5635C301.729 17.1638 298.884 16.841 291.547 17.4132C286.212 17.8293 283.473 18.4031 282.376 19.3347C281.515 20.0649 278.415 24.4009 275.487 28.97C269.24 38.7141 259.864 51.9261 259.21 51.9046C258.539 51.8825 247.432 41.047 237.484 30.7108C232.712 25.7519 228.532 21.6865 228.197 21.6762C227.621 21.6588 218.385 31.1899 207.664 42.8665C201.257 49.8452 161.782 87.1128 158.155 89.6075C154.702 91.9833 146.905 94.8362 142.498 95.3374C139.16 95.7163 135.924 94.1969 136.908 92.7128C137.173 92.3119 140.141 90.2291 143.503 88.0832C163.295 75.4503 186.243 54.106 188.773 45.978C189.636 43.2041 189.09 37.027 187.738 34.2822C186.682 32.1376 181.644 27.4997 177.544 24.898C174.033 22.6701 173.49 22.5631 164.307 22.2866C152.873 21.9422 148.701 22.8716 140.476 27.5974C133.331 31.7032 128.971 35.2743 123.594 41.4253C114.04 52.354 108.231 63.9396 105.414 77.6845C104.97 79.8512 104.123 80.9033 101.539 82.4953C99.7189 83.6167 96.1755 86.1348 93.6642 88.0912C89.1461 91.6118 86.8419 92.4744 86.92 90.6161C86.9428 90.0888 88.458 85.0365 90.2888 79.3898C105.083 33.7478 105.619 31.7924 104.353 28.0912C103.227 24.7998 99.1839 23.293 92.5867 23.7074C85.7582 24.1357 80.9959 26.1779 73.5112 31.8851C57.3565 44.2035 42.927 54.1254 42.0319 53.5286C41.731 53.3289 41.8687 52.0582 42.3373 50.7055C44.3607 44.8675 45.8488 40.2664 47.4981 34.752C49.1664 29.1744 49.1941 28.7518 48.0267 26.831L46.7939 24.8019L33.6204 24.9043C16.8911 25.0349 13.7201 25.8374 10.1384 30.8438C7.06866 35.1354 5.74081 40.8072 7.39094 42.5748C8.32715 43.5765 9.16801 43.6318 13.1056 42.9514C18.9927 41.9333 20.2553 42.4553 20.143 45.8636C20.0224 49.5229 15.3738 63.7062 6.72412 86.8045C2.00163 99.4144 -0.33644 106.61 0.128072 107.103C0.523678 107.524 2.98911 108.285 5.60772 108.794C11.2114 109.886 15.9786 109.069 20.8461 106.182C23.6678 104.508 24.176 103.723 25.9365 98.3222C27.0122 95.0218 29.1979 88.5396 30.7949 83.9159L33.6973 75.5105L48.6979 64.5214C56.9482 58.4782 65.8834 51.9648 68.5544 50.0475C73.3506 46.6045 76.3833 45.739 77.0218 47.6309C77.2866 48.4136 71.4076 67.4057 64.3635 88.5277C58.8663 105.011 58.631 106.473 61.2985 107.592C63.7301 108.611 73.6886 107.717 78.5661 106.041C82.6168 104.649 88.7252 100.895 98.5802 93.7405C101.541 91.5913 104.429 89.8479 104.998 89.8666C105.567 89.8854 106.553 91.1008 107.189 92.5668C109.732 98.4307 118.151 104.957 126.417 107.472C128.557 108.122 132.446 108.506 135.997 108.418C147.944 108.119 160.172 100.28 181.819 79.0429C203.14 58.1269 207 54.2442 217.618 43.04C222.765 37.6086 227.368 33.1769 227.846 33.1926C228.324 33.2084 231.05 35.8201 233.905 38.9963C236.759 42.1718 241.882 47.3437 245.291 50.4875C248.698 53.632 252.157 57.1195 252.976 58.2372L254.466 60.2693L252.463 63.0526C251.361 64.5836 247.641 69.8937 244.195 74.8531C240.748 79.8125 234.857 88.264 231.103 93.6352C227.349 99.0057 224.226 103.918 224.164 104.552C224.069 105.515 225.377 105.729 232.169 105.86C242.88 106.067 243.796 105.585 249.744 96.5991C259.508 81.8518 265.796 73.2651 266.966 73.0831C267.631 72.9789 271.509 76.212 275.6 80.2783C295.321 99.8872 298.236 102.5 299.394 101.599C300.007 101.122 300.52 100.413 300.533 100.022C300.582 98.521 317.716 66.8991 318.466 66.9238C319.569 66.9602 319.402 68.6695 317.765 74.092C316.989 76.6637 316.211 81.9408 316.037 85.819L315.72 92.8692L318.308 95.7853C321.847 99.7736 324.739 100.95 331.548 101.175C341.374 101.498 354.232 96.318 357.452 90.7386C358.471 88.9735 358.114 82.0656 357.003 82.029C356.642 82.0171 354.746 83.1514 352.788 84.5488C343.992 90.8323 334.624 89.2508 334.881 81.5268C334.995 78.1033 336.987 68.2804 338.878 61.8178C339.611 59.3132 341.049 52.7949 342.075 47.333C343.1 41.8711 344.808 35.0166 345.87 32.1008C347.95 26.3923 348.893 25.5779 354.888 24.3112C358.566 23.5346 359.026 22.6174 358.66 16.7876C358.423 13.0135 358.171 12.5624 354.858 10.0075C352.906 8.50121 350.905 6.19242 350.411 4.87562C349.357 2.06534 347.784 0.216448 346.512 0.29292C346.013 0.322609 344.148 0.586257 342.366 0.878048ZM155.72 39.1019C149.093 41.0726 134.89 55.2002 130.127 64.5612C127.42 69.8801 125.482 77.4303 125.923 80.9405C126.369 84.4879 127.992 87.5498 129.454 87.5979C132.36 87.6937 162.638 65.0821 169.106 57.9855C173.279 53.4075 174.887 50.2614 175.013 46.4301C175.233 39.7694 165.679 36.1403 155.72 39.1019Z" fill="#000000"/>
</svg>
